<svg width="18" height="19" viewBox="0 0 18 19" fill="none" xmlns="http://www.w3.org/2000/svg">
<path d="M13.4724 0.500011H1.1C0.76863 0.500011 0.5 0.768612 0.5 1.10001V10.9C0.5 11.2314 0.76863 11.5 1.1 11.5H3.86762C4.57015 11.5 5.22116 11.8686 5.5826 12.471L8.293 16.9884C8.8779 17.9631 10.2554 18.0558 10.9655 17.1682C11.3002 16.7498 11.4081 16.1937 11.2541 15.6805L10.2317 12.2724C10.1162 11.8875 10.4045 11.5 10.8064 11.5H15.3815C16.7002 11.5 17.658 10.246 17.311 8.97381L15.4019 1.97381C15.1646 1.10361 14.3743 0.500011 13.4724 0.500011Z" stroke="#5D5D5D" stroke-linecap="round"/>
<path d="M4 0.500122V11.5001" stroke="#5D5D5D" stroke-linecap="round" stroke-linejoin="round"/>
</svg>
