<svg width="18" height="19" viewBox="0 0 18 19" fill="none" xmlns="http://www.w3.org/2000/svg">
<path d="M13.4724 17.7804H1.1C0.76863 17.7804 0.5 17.5118 0.5 17.1804V7.38038C0.5 7.04901 0.76863 6.78038 1.1 6.78038H3.86762C4.57015 6.78038 5.22116 6.41178 5.5826 5.80937L8.293 1.29199C8.8779 0.317264 10.2554 0.224604 10.9655 1.11224C11.3002 1.53063 11.4081 2.08673 11.2541 2.59994L10.2317 6.00797C10.1162 6.39294 10.4045 6.78038 10.8064 6.78038H15.3815C16.7002 6.78038 17.658 8.03438 17.311 9.30658L15.4019 16.3066C15.1646 17.1768 14.3743 17.7804 13.4724 17.7804Z" stroke="#5D5D5D" stroke-linecap="round"/>
<path d="M4 17.7803V6.78027" stroke="#5D5D5D" stroke-linecap="round" stroke-linejoin="round"/>
</svg>
