<svg width="32" height="26" viewBox="0 0 32 26" fill="none" xmlns="http://www.w3.org/2000/svg">
<path d="M7.09277 25.707H0V25.2617C1.12528 24.6487 1.89338 23.4661 1.89355 22.1045V3.60254C1.89352 2.24081 1.1253 1.053 0 0.445312V0H7.09277V25.707ZM16.9141 25.707H9.37695V25.1641C13.2362 25.1639 16.3652 22.071 16.3652 18.2568H16.9141V25.707ZM29.8867 14.9043V25.707H29.4365L15.4648 4.06348C15.3441 3.84113 15.2068 3.62937 15.0586 3.42871C13.7905 1.68185 11.7154 0.543048 9.37695 0.542969V0H20.2627C23.4688 4.96988 26.6806 9.93441 29.8867 14.9043ZM13.5654 7.75293V15.4951H13.0166C13.0163 13.5042 11.386 11.8927 9.37695 11.8926V11.3506C11.3861 11.3505 13.0166 9.73863 13.0166 7.75293H13.5654ZM32 0.445312C30.8747 1.053 30.1065 2.24081 30.1064 3.60254H29.6611C29.6611 2.24088 28.8983 1.05303 27.7676 0.445312V0H32V0.445312Z" fill="#FF3336"/>
</svg>
