<svg width="32" height="32" viewBox="0 0 32 32" fill="none" xmlns="http://www.w3.org/2000/svg">
<rect width="32" height="32" fill="#FFE4CC"/>
<path d="M9.95508 24.2803H5.38574V23.9932C6.11068 23.5982 6.60547 22.8362 6.60547 21.959V10.041C6.60547 9.16377 6.11067 8.39831 5.38574 8.00684V7.71973H9.95508V24.2803ZM16.2812 24.2803H11.4258V23.9307C13.9118 23.9307 15.9276 21.9384 15.9277 19.4814H16.2812V24.2803ZM24.6387 17.3213V24.2803H24.3486L15.3477 10.3379C15.2699 10.1946 15.1814 10.058 15.0859 9.92871C14.269 8.80345 12.9322 8.06934 11.4258 8.06934V7.71973H18.4385C20.5038 10.9213 22.5734 14.1197 24.6387 17.3213ZM14.124 12.7148V17.7021H13.7705C13.7705 16.4194 12.7201 15.3809 11.4258 15.3809V15.0322C12.72 15.0322 13.7703 13.9939 13.7705 12.7148H14.124ZM26 8.00684C25.275 8.39829 24.7793 9.16374 24.7793 10.041H24.4932C24.4932 9.16386 24.0018 8.39834 23.2734 8.00684V7.71973H26V8.00684Z" fill="#FF3336"/>
</svg>
